<svg width="33" height="33" viewBox="0 0 33 33" fill="none" xmlns="http://www.w3.org/2000/svg">
<path d="M21.0148 21.6976V24.6622H23.1895V25.8282H9.22189V24.6622H11.3951V21.6976C11.3951 19.5608 13.7665 17.2871 15.3056 16.5C13.7607 15.7158 11.3703 13.4304 11.3703 11.2893V8.3378H9.21606V7.17177H23.1895V8.3378H21.0352V11.2922C21.0352 13.3809 18.6288 15.6969 17.0999 16.4956C18.6317 17.2754 21.0148 19.5608 21.0148 21.6976ZM19.9275 13.0019H12.4809C13.1791 14.2233 14.4676 15.3748 15.4558 15.917H16.941C17.9336 15.3617 19.225 14.2088 19.9275 13.0019ZM16.2049 21.0767L12.787 24.6622H19.6374L16.2049 21.0767Z" fill="#2F363D"/>
</svg>
