<svg width="33" height="32" viewBox="0 0 33 32" fill="none" xmlns="http://www.w3.org/2000/svg">
<path d="M17.0626 12.41C17.6545 12.41 18.1231 11.9415 18.1231 11.3496V8.31624L24.4364 6.73793V25.3572L18.1231 23.7789V20.7456C18.1231 20.1537 17.6545 19.6851 17.0626 19.6851C16.4708 19.6851 16.0022 20.1537 16.0022 20.7456V24.5927C16.0022 25.086 16.3228 25.5052 16.7914 25.6038L25.2009 27.7001C25.5215 27.774 25.8421 27.7001 26.1134 27.5028C26.36 27.3055 26.5079 27.0096 26.5079 26.6643V5.33222C26.5079 5.01163 26.36 4.69102 26.1134 4.49373C25.9161 4.34576 25.6941 4.27179 25.4722 4.27179C25.3982 4.27179 25.2995 4.27178 25.2256 4.29644L16.816 6.39266C16.3475 6.51597 16.0269 6.93522 16.0269 7.40378V11.251C16.0022 11.9415 16.4708 12.41 17.0626 12.41Z" fill="#2F363D"/>
<path d="M7.12412 16.7751L11.5138 21.1648C11.9331 21.5841 12.5989 21.5841 12.9935 21.1648C13.4128 20.7456 13.4128 20.0797 12.9935 19.6851L10.4041 17.0957H20.7865C21.3784 17.0957 21.847 16.6271 21.847 16.0353C21.847 15.4434 21.3784 14.9748 20.7865 14.9748H10.3794L12.9935 12.3607C13.4128 11.9415 13.4128 11.2756 12.9935 10.881C12.7962 10.6837 12.525 10.5851 12.2537 10.5851C11.9824 10.5851 11.7111 10.6837 11.5138 10.881L7.12412 15.2707C6.70488 15.7146 6.70488 16.3805 7.12412 16.7751Z" fill="#2F363D"/>
</svg>
