<svg width="33" height="33" viewBox="0 0 33 33" fill="none" xmlns="http://www.w3.org/2000/svg">
<path fill-rule="evenodd" clip-rule="evenodd" d="M24.0495 7.3932H13.0774C12.9078 7.39093 12.7395 7.42271 12.5822 7.4867C12.425 7.55068 12.2819 7.64558 12.1615 7.76586C12.041 7.88614 11.9456 8.02939 11.8807 8.18724C11.8158 8.34509 11.7828 8.51438 11.7835 8.68523V23.9734C11.7842 24.5549 11.6131 25.1236 11.292 25.6069H21.4619C21.9713 25.6077 22.4759 25.5072 22.9468 25.3113C23.4177 25.1154 23.8457 24.8279 24.2062 24.4653C24.5667 24.1027 24.8527 23.672 25.0478 23.1979C25.2429 22.7238 25.3434 22.2156 25.3434 21.7023V8.68523C25.3426 8.51481 25.3086 8.34621 25.2432 8.18904C25.1777 8.03188 25.0822 7.88924 24.9621 7.76926C24.8419 7.64929 24.6995 7.55432 24.5429 7.4898C24.3864 7.42527 24.2187 7.39245 24.0495 7.3932ZM16.3035 20.4046H15.0096V19.1012H16.3035V20.4046ZM16.3035 17.1546H15.0096V15.8512H16.3035V17.1546ZM16.3035 13.9046H15.0096V12.5955H16.3035V13.9046ZM22.1173 20.4046H17.5973V19.1012H22.1173V20.4046ZM22.1173 17.1546H17.5973V15.8512H22.1173V17.1546ZM22.1173 13.9046H17.5973V12.5955H22.1173V13.9046Z" fill="#2F363D"/>
<path fill-rule="evenodd" clip-rule="evenodd" d="M10.5387 20.3989V23.9791C10.5358 24.4089 10.3654 24.8204 10.0642 25.1248C9.76301 25.4293 9.35517 25.6024 8.9285 25.6069C8.49989 25.6039 8.08975 25.4307 7.7872 25.1248C7.48464 24.8189 7.3141 24.4052 7.31262 23.9734V21.6967C7.31213 21.3519 7.44604 21.0208 7.68552 20.7746C7.93004 20.5328 8.25819 20.3961 8.60081 20.3932L10.5387 20.3989Z" fill="#2F363D"/>
</svg>
