<svg width="33" height="33" viewBox="0 0 33 33" fill="none" xmlns="http://www.w3.org/2000/svg">
<path d="M23.721 21.5135C23.6841 22.6821 23.1893 23.7894 22.3434 24.5965C21.4974 25.4036 20.3682 25.8458 19.1991 25.8277H13.1883C6.82522 25.3826 7.83919 17.5428 12.295 15.025C13.3458 16.0271 14.741 16.5879 16.193 16.5918C17.6451 16.5956 19.0432 16.0423 20.0993 15.0457C21.2131 15.7161 22.1329 16.6651 22.768 17.7993C23.4031 18.9335 23.7316 20.2137 23.721 21.5135ZM11.9049 10.9397C11.9046 11.7867 12.1555 12.6148 12.6259 13.3192C13.0963 14.0236 13.7651 14.5727 14.5476 14.897C15.3301 15.2213 16.1912 15.3062 17.0219 15.141C17.8527 14.9758 18.6158 14.568 19.2148 13.969C19.8137 13.3701 20.2216 12.607 20.3867 11.7762C20.5519 10.9454 20.4669 10.0843 20.1426 9.30181C19.8183 8.51932 19.2693 7.85058 18.5648 7.3802C17.8604 6.90981 17.0323 6.65892 16.1853 6.65924C15.052 6.66552 13.9669 7.1185 13.1655 7.91988C12.3642 8.72126 11.9112 9.80636 11.9049 10.9397Z" fill="#2F363D"/>
</svg>
